<svg width="30" height="30" viewBox="0 0 30 30" fill="none" xmlns="http://www.w3.org/2000/svg">
<g filter="url(#filter0_d_186_1037)">
<rect x="5" y="5" width="20" height="20" rx="10" fill="#0D98BA"/>
<path d="M10.9028 20.8681C10.1275 20.8681 9.81627 19.4821 9.75167 18.93C9.68212 18.394 9.74669 17.8492 9.9396 17.3443C10.0244 17.1041 10.1702 16.89 10.3628 16.7232C10.5553 16.5564 10.788 16.4426 11.0379 16.3929C11.725 16.2754 12.2125 16.6865 12.835 16.8275C12.9519 16.865 13.0766 16.8716 13.1969 16.8466C13.3171 16.8216 13.4288 16.7659 13.5211 16.6848C13.6134 16.6038 13.6831 16.5002 13.7234 16.3842C13.7637 16.2682 13.7733 16.1437 13.7512 16.0229C13.4928 15.0127 11.6545 14.9951 10.9028 14.9951C10.9028 13.9027 12.1009 13.7618 12.9583 13.844C13.467 13.8931 13.9679 14.0036 14.4501 14.1729C14.7437 14.2727 15.0844 14.5253 15.4074 14.5018C15.8948 14.4607 15.9947 13.9556 15.7832 13.5856C15.2723 12.7164 13.8217 12.6459 12.9583 12.6459C12.9583 11.4713 13.9744 11.2481 14.9493 11.4243C15.4527 11.5234 15.9432 11.6791 16.4117 11.8883C16.7112 12.0175 17.0694 12.2642 17.3983 12.1526C18.244 11.8942 17.3631 10.9897 16.9872 10.7724C16.7234 10.6268 16.4435 10.5125 16.1532 10.4318C15.8361 10.3378 15.4485 10.3731 15.7363 10.0031C16.1863 9.60605 16.7445 9.35246 17.3396 9.2748C18.4496 9.01639 19.9824 8.96941 20.2526 10.3672C20.3426 11.1052 20.1655 11.851 19.7534 12.4697C18.659 14.3411 17.3045 16.0475 15.7304 17.5381C14.8965 18.3929 13.9929 19.1767 13.0288 19.8815C12.4415 20.3043 11.6663 20.8681 10.9028 20.8681Z" fill="white"/>
</g>
<defs>
<filter id="filter0_d_186_1037" x="0" y="0" width="30" height="30" filterUnits="userSpaceOnUse" color-interpolation-filters="sRGB">
<feFlood flood-opacity="0" result="BackgroundImageFix"/>
<feColorMatrix in="SourceAlpha" type="matrix" values="0 0 0 0 0 0 0 0 0 0 0 0 0 0 0 0 0 0 127 0" result="hardAlpha"/>
<feOffset/>
<feGaussianBlur stdDeviation="2.5"/>
<feComposite in2="hardAlpha" operator="out"/>
<feColorMatrix type="matrix" values="0 0 0 0 0.0509804 0 0 0 0 0.596078 0 0 0 0 0.729412 0 0 0 1 0"/>
<feBlend mode="normal" in2="BackgroundImageFix" result="effect1_dropShadow_186_1037"/>
<feBlend mode="normal" in="SourceGraphic" in2="effect1_dropShadow_186_1037" result="shape"/>
</filter>
</defs>
</svg>
