<svg width="30" height="30" viewBox="0 0 30 30" fill="none" xmlns="http://www.w3.org/2000/svg">
<g filter="url(#filter0_d_186_1054)">
<rect x="5" y="5" width="20" height="20" rx="10" fill="#0D98BA"/>
<path d="M17.192 11.712V15C17.192 15.6028 17.6852 16.0959 18.288 16.0959H18.836V19.9319C18.836 20.2333 19.0826 20.4799 19.384 20.4799C19.6853 20.4799 19.9319 20.2333 19.9319 19.9319V10.1393C19.9319 9.78306 19.5977 9.52002 19.2524 9.60222C18.0688 9.89266 17.192 10.8955 17.192 11.712ZM14.452 13.356H13.356V10.068C13.356 9.76662 13.1094 9.52002 12.808 9.52002C12.5066 9.52002 12.26 9.76662 12.26 10.068V13.356H11.164V10.068C11.164 9.76662 10.9174 9.52002 10.616 9.52002C10.3147 9.52002 10.0681 9.76662 10.0681 10.068V13.356C10.0681 14.567 11.049 15.548 12.26 15.548V19.9319C12.26 20.2333 12.5066 20.4799 12.808 20.4799C13.1094 20.4799 13.356 20.2333 13.356 19.9319V15.548C14.5671 15.548 15.548 14.567 15.548 13.356V10.068C15.548 9.76662 15.3014 9.52002 15 9.52002C14.6986 9.52002 14.452 9.76662 14.452 10.068V13.356Z" fill="white"/>
</g>
<defs>
<filter id="filter0_d_186_1054" x="0" y="0" width="30" height="30" filterUnits="userSpaceOnUse" color-interpolation-filters="sRGB">
<feFlood flood-opacity="0" result="BackgroundImageFix"/>
<feColorMatrix in="SourceAlpha" type="matrix" values="0 0 0 0 0 0 0 0 0 0 0 0 0 0 0 0 0 0 127 0" result="hardAlpha"/>
<feOffset/>
<feGaussianBlur stdDeviation="2.5"/>
<feComposite in2="hardAlpha" operator="out"/>
<feColorMatrix type="matrix" values="0 0 0 0 0.0509804 0 0 0 0 0.596078 0 0 0 0 0.729412 0 0 0 1 0"/>
<feBlend mode="normal" in2="BackgroundImageFix" result="effect1_dropShadow_186_1054"/>
<feBlend mode="normal" in="SourceGraphic" in2="effect1_dropShadow_186_1054" result="shape"/>
</filter>
</defs>
</svg>
