<svg width="30" height="30" viewBox="0 0 30 30" fill="none" xmlns="http://www.w3.org/2000/svg">
<g filter="url(#filter0_d_186_1049)">
<rect x="5" y="5" width="20" height="20" rx="10" fill="#0D98BA"/>
<path d="M9.53477 11.7188H18.8257C19.2605 11.7188 19.6775 11.8915 19.985 12.199C20.2925 12.5064 20.4652 12.9235 20.4652 13.3583C20.4652 13.7932 20.2925 14.2102 19.985 14.5177C19.6775 14.8251 19.2605 14.9979 18.8257 14.9979H18.1414C17.8762 16.0293 17.2438 16.9284 16.3627 17.5265C15.4816 18.1247 14.4125 18.3807 13.3561 18.2465C12.2997 18.1123 11.3285 17.5972 10.6249 16.7978C9.92136 15.9984 9.53372 14.9698 9.53477 13.9048V11.7188ZM18.2791 13.9048H18.8257C18.9706 13.9048 19.1096 13.8473 19.2121 13.7448C19.3146 13.6423 19.3722 13.5033 19.3722 13.3583C19.3722 13.2134 19.3146 13.0744 19.2121 12.9719C19.1096 12.8694 18.9706 12.8118 18.8257 12.8118H18.2791V13.9048Z" fill="white"/>
</g>
<defs>
<filter id="filter0_d_186_1049" x="0" y="0" width="30" height="30" filterUnits="userSpaceOnUse" color-interpolation-filters="sRGB">
<feFlood flood-opacity="0" result="BackgroundImageFix"/>
<feColorMatrix in="SourceAlpha" type="matrix" values="0 0 0 0 0 0 0 0 0 0 0 0 0 0 0 0 0 0 127 0" result="hardAlpha"/>
<feOffset/>
<feGaussianBlur stdDeviation="2.5"/>
<feComposite in2="hardAlpha" operator="out"/>
<feColorMatrix type="matrix" values="0 0 0 0 0.0509804 0 0 0 0 0.596078 0 0 0 0 0.729412 0 0 0 1 0"/>
<feBlend mode="normal" in2="BackgroundImageFix" result="effect1_dropShadow_186_1049"/>
<feBlend mode="normal" in="SourceGraphic" in2="effect1_dropShadow_186_1049" result="shape"/>
</filter>
</defs>
</svg>
