<svg xmlns="http://www.w3.org/2000/svg" fill="currentColor" viewBox="0 0 28 28"><path fill="#0d98ba" fill-rule="evenodd" d="M14 3.5a1.4 1.4 0 0 0-1.4 1.4v.48a6.3 6.3 0 0 0-3.185 1.715l-.22.22A6.3 6.3 0 0 0 7.35 11.77v1.028c0 1.705-.677 3.34-1.883 4.545a1.937 1.937 0 0 0 1.37 3.307h4.058a3.1 3.1 0 0 0 .235 1.586 3.124 3.124 0 0 0 5.975-1.586h4.058a1.937 1.937 0 0 0 1.37-3.307 6.42 6.42 0 0 1-1.883-4.544v-1.03a6.3 6.3 0 0 0-1.845-4.454l-.22-.22A6.3 6.3 0 0 0 15.4 5.38V4.9A1.4 1.4 0 0 0 14 3.5m.13 3.15h-.26a4.9 4.9 0 0 0-3.465 1.435l-.22.22A4.9 4.9 0 0 0 8.75 11.77v1.028a7.83 7.83 0 0 1-2.293 5.535.537.537 0 0 0 .38.917h14.326a.538.538 0 0 0 .38-.917 7.83 7.83 0 0 1-2.293-5.536V11.77a4.9 4.9 0 0 0-1.435-3.465l-.22-.219A4.9 4.9 0 0 0 14.13 6.65M12.275 21q0-.18.036-.35h3.378a1.726 1.726 0 0 1-3.264 1.049 1.7 1.7 0 0 1-.15-.7" clip-rule="evenodd"/><path stroke="#0d98ba" stroke-linecap="round" stroke-linejoin="round" stroke-width=".5" d="M14.13 6.65h-.26a4.9 4.9 0 0 0-3.465 1.435l-.22.22A4.9 4.9 0 0 0 8.75 11.77v1.028a7.83 7.83 0 0 1-2.293 5.535.537.537 0 0 0 .38.917h14.326a.538.538 0 0 0 .38-.917 7.83 7.83 0 0 1-2.293-5.536V11.77a4.9 4.9 0 0 0-1.435-3.465l-.22-.219A4.9 4.9 0 0 0 14.13 6.65M14 3.5a1.4 1.4 0 0 0-1.4 1.4v.48a6.3 6.3 0 0 0-3.185 1.715l-.22.22A6.3 6.3 0 0 0 7.35 11.77v1.028c0 1.705-.677 3.34-1.883 4.545a1.937 1.937 0 0 0 1.37 3.307h4.058a3.1 3.1 0 0 0 .235 1.586 3.124 3.124 0 0 0 5.975-1.586h4.058a1.937 1.937 0 0 0 1.37-3.307 6.42 6.42 0 0 1-1.883-4.544v-1.03a6.3 6.3 0 0 0-1.845-4.454l-.22-.22A6.3 6.3 0 0 0 15.4 5.38V4.9A1.4 1.4 0 0 0 14 3.5M12.275 21q0-.18.036-.35h3.378a1.726 1.726 0 0 1-3.264 1.049 1.7 1.7 0 0 1-.15-.7"/></svg>