<svg xmlns="http://www.w3.org/2000/svg" fill="none" viewBox="0 0 24 24"><path fill="#0daaba" d="M8.642 0A2.12 2.12 0 0 0 6.75 1.166l-.833 1.658H3.53A3.53 3.53 0 0 0 0 6.354v11.297a3.53 3.53 0 0 0 3.53 3.53h7.196a8 8 0 0 1-.555-1.412h-6.64a2.12 2.12 0 0 1-2.117-2.118V6.354a2.12 2.12 0 0 1 2.118-2.118h2.821a.71.71 0 0 0 .63-.39L8.01 1.8a.71.71 0 0 1 .631-.388h5.315a.71.71 0 0 1 .633.39l1.02 2.043a.71.71 0 0 0 .632.39h2.823a2.12 2.12 0 0 1 2.118 2.118v4.382q.76.39 1.412.93V6.353a3.53 3.53 0 0 0-3.53-3.53h-2.387l-.826-1.652A2.12 2.12 0 0 0 13.957 0zm2.65 5.648a5.65 5.65 0 0 1 5.482 4.285q-.706.079-1.385.285a4.238 4.238 0 1 0-5.177 5.177 8 8 0 0 0-.285 1.384 5.65 5.65 0 0 1 1.364-11.13M24 17.651a6.355 6.355 0 1 1-12.709 0 6.355 6.355 0 0 1 12.709 0m-5.648-2.824a.706.706 0 0 0-1.413 0v2.118h-2.118a.706.706 0 1 0 0 1.412h2.118v2.118a.706.706 0 0 0 1.413 0v-2.118h2.118a.706.706 0 0 0 0-1.412h-2.118z"/></svg>