<svg xmlns="http://www.w3.org/2000/svg" fill="none" viewBox="0 0 163 163"><path fill="#0d98ba" d="M81.5 77.323q-8.4 0-14.391-5.99t-5.984-14.385 5.984-14.398T81.5 36.58t14.392 5.977q5.976 5.941 5.983 14.398.007 8.455-5.983 14.385c-3.994 3.952-8.791 5.942-14.392 5.983m-40.485 49.111q-2.995 0-5.026-2.031-2.03-2.03-2.03-5.026v-4.129q0-4.205 2.444-7.865 2.452-3.667 6.588-5.691 8.15-3.879 16.205-6.133a82.3 82.3 0 0 1 16.178-2.84q1.82-.203 3.015 1.19 1.204 1.399 1.012 3.382a1.6 1.6 0 0 0-.047.373v.374q0 5.223 1.786 10.228 1.785 5.005 6.33 9.556l.625.591q2.18 2.173 1.052 5.093-1.127 2.92-4.407 2.921zm74.233-3.838-16.273-16.272q-1.95-1.95-2.683-4.055a12.8 12.8 0 0 1-.74-4.231q0-4.619 3.28-8.218t8.422-3.613q4.082 0 6.418 1.88 2.337 1.882 5.42 4.966 3.002-3.003 5.365-4.924t6.527-1.922q5.304 0 8.476 3.613t3.165 8.225q0 2.166-.822 4.333-.822 2.159-2.574 3.912l-16.3 16.3q-1.644 1.643-3.837 1.643t-3.844-1.643"/></svg>