<svg xmlns="http://www.w3.org/2000/svg" fill="none" viewBox="0 0 120 120"><path fill="#0d98ba" d="m110 54.6-13.7-7.95c13.2-11.25-.05-32.25-15.9-25.1l-4.35 1.85-.55-4.8c-.5-5.4-3.3-9.25-7-11.5-8.2-4.765-20.7-1.5-22.7 10.4L32.05 9.6a9.93 9.93 0 0 0-13.65 3.65l-5 8.65c-1.4 2.4-.55 5.45 1.85 6.85l38.95 22.5 7.5-13 8.65 5-7.5 13 38.95 22.5c2.4 1.25 5.5.55 6.85-1.85l5-8.65c2.75-4.8 1.15-10.9-3.65-13.65M61.85 25c-4.35 1.25-7.85-3.4-5.65-7.25 1.3-2.4 4.45-3.2 6.85-1.85 3.85 2.25 3.1 8.05-1.2 9.1M87.8 40c-4.3 1.25-7.8-3.4-5.6-7.25 1.35-2.4 4.45-3.2 6.8-1.85 3.85 2.25 3.1 8.05-1.2 9.1m16.55 44.4c2.05 0 4-.7 5.65-1.9V100c0 5.55-4.45 10-10 10H20a10 10 0 0 1-10-10V55h40.75L55 57.5V100h10V63.25l34.35 19.8c1.5.9 3.15 1.35 5 1.35"/></svg>