<svg xmlns="http://www.w3.org/2000/svg" fill="none" viewBox="0 0 80 80"><path fill="#0daaba" d="M30.2 6.433C23.9 6.4 17.767 12.467 20.567 20H10a6.667 6.667 0 0 0-6.667 6.667v6.666a3.333 3.333 0 0 0 3.334 3.334h30v-10h6.666v10h30a3.334 3.334 0 0 0 3.334-3.334v-6.666A6.667 6.667 0 0 0 70 20H59.433c3.9-10.9-10.766-18.6-17.533-9.2L40 13.333l-1.9-2.6c-2.1-2.966-5-4.266-7.9-4.3m-.2 6.9c2.967 0 4.467 3.6 2.367 5.7s-5.7.6-5.7-2.366A3.333 3.333 0 0 1 30 13.333m20 0c2.967 0 4.467 3.6 2.367 5.7s-5.7.6-5.7-2.366A3.333 3.333 0 0 1 50 13.333M6.667 40v26.667a6.667 6.667 0 0 0 6.666 6.666h53.334a6.666 6.666 0 0 0 6.666-6.666V40h-30v26.667h-6.666V40z"/></svg>