<svg xmlns="http://www.w3.org/2000/svg" fill="none" viewBox="0 0 18 20"><path fill="currentColor" d="M2.25 17.714h3.375V12q0-.486.324-.814t.801-.329h4.5q.478 0 .802.33.324.329.323.813v5.714h3.375V7.43L9 2.286 2.25 7.429zm-2.25 0V7.43A2.3 2.3 0 0 1 .9 5.6L7.65.457A2.15 2.15 0 0 1 9 0q.759 0 1.35.457L17.1 5.6q.422.315.662.8T18 7.429v10.285a2.22 2.22 0 0 1-.662 1.615q-.66.672-1.588.671h-4.5q-.479 0-.801-.33a1.12 1.12 0 0 1-.324-.813v-5.714h-2.25v5.714q0 .486-.324.815-.324.33-.801.328h-4.5a2.15 2.15 0 0 1-1.588-.67A2.22 2.22 0 0 1 0 17.713"/></svg>