<svg xmlns="http://www.w3.org/2000/svg" fill="none" viewBox="0 0 20 20"><path stroke="#0d98ba" stroke-linecap="round" stroke-linejoin="round" stroke-width="1.5" d="M2.935 5.833c0-.442.165-.866.46-1.178a1.53 1.53 0 0 1 1.11-.488h10.99c.417 0 .816.175 1.11.488.295.312.46.736.46 1.178v8.334c0 .442-.165.866-.46 1.178a1.53 1.53 0 0 1-1.11.488H4.505c-.417 0-.816-.175-1.11-.488a1.72 1.72 0 0 1-.46-1.178z"/><path stroke="#0d98ba" stroke-linecap="round" stroke-linejoin="round" stroke-width="1.5" d="m3.628 4.828 6.259 6.005 6.259-6.005"/></svg>