<svg xmlns="http://www.w3.org/2000/svg" fill="none" viewBox="0 0 26 26"><path fill="#0d98ba" d="M12.372 23.632a1.08 1.08 0 0 0 1.256 0c.33-.233 8.07-5.822 8.039-12.799 0-4.778-3.888-8.666-8.667-8.666s-8.667 3.888-8.667 8.66c-.031 6.983 7.71 12.572 8.039 12.805M13 4.333c3.585 0 6.5 2.916 6.5 6.506.023 4.807-4.754 9.125-6.5 10.54-1.745-1.417-6.523-5.735-6.5-10.546 0-3.584 2.915-6.5 6.5-6.5"/><path fill="#0d98ba" d="M13 4.333c3.585 0 6.5 2.916 6.5 6.506.023 4.807-4.754 9.125-6.5 10.54-1.745-1.417-6.523-5.735-6.5-10.546 0-3.584 2.915-6.5 6.5-6.5"/><path fill="#fff" d="M13 15.167a4.34 4.34 0 0 0 4.333-4.334A4.34 4.34 0 0 0 13 6.5a4.34 4.34 0 0 0-4.333 4.333A4.34 4.34 0 0 0 13 15.167m0-6.5c1.195 0 2.167.971 2.167 2.166A2.17 2.17 0 0 1 13 13a2.17 2.17 0 0 1-2.167-2.167c0-1.195.972-2.166 2.167-2.166"/></svg>