<svg xmlns="http://www.w3.org/2000/svg" fill="none" viewBox="0 0 163 163"><path fill="#0d98ba" d="M81.5 77.313q-8.4 0-14.392-5.99-5.99-5.991-5.983-14.385t5.983-14.398T81.5 36.57t14.391 5.977q5.977 5.941 5.984 14.398.007 8.456-5.984 14.385c-3.993 3.952-8.79 5.942-14.391 5.983m23.248 49.111V95.888q3.973 1.223 7.79 2.649 3.81 1.433 7.471 3.151 4.047 2.025 6.54 5.637 2.493 3.614 2.493 7.913v11.179zm-39.704-16.98V94.272a79 79 0 0 1 8.231-1.359 73 73 0 0 1 8.225-.441q4.11.015 8.231.448 4.123.434 8.225 1.352v15.179zm-31.086 16.98v-11.18q0-4.305 2.493-7.919 2.492-3.612 6.547-5.637a99 99 0 0 1 7.47-3.144q3.81-1.433 7.784-2.649v30.535z"/></svg>