<svg xmlns="http://www.w3.org/2000/svg" fill="none" viewBox="0 0 20 20"><path fill="#ff9a62" d="M11.752 2.22c.523-.347 1.41-.594 2.079.075l3.872 3.873c.672.67.424 1.557.076 2.08a2.5 2.5 0 0 1-.719.708c-.278.177-.63.312-1.01.292a8 8 0 0 1-.548-.06l-.056-.008a8 8 0 0 0-.59-.06c-.42-.022-.581.05-.633.1l-2.075 2.075c-.066.067-.15.215-.213.5-.06.275-.088.613-.094.988-.006.36.007.729.02 1.084v.039c.013.352.026.712.008.995-.054.859-.723 1.491-1.381 1.784-.659.292-1.598.364-2.25-.29l-1.876-1.874-3.42 3.42a.626.626 0 1 1-.884-.883l3.42-3.42-1.875-1.876c-.652-.653-.58-1.591-.288-2.25.292-.658.925-1.327 1.783-1.381.284-.018.644-.005.996.007l.04.001c.354.013.723.026 1.083.02.375-.006.713-.033.988-.094.285-.063.433-.147.5-.214l2.075-2.075c.05-.051.122-.213.1-.633a8 8 0 0 0-.06-.59l-.008-.056a8 8 0 0 1-.06-.549c-.02-.379.114-.73.29-1.009.18-.283.43-.533.71-.719"/></svg>