<svg xmlns="http://www.w3.org/2000/svg" fill="none" viewBox="0 0 28 28"><path fill="#0d98ba" d="M14 2.625C7.718 2.625 2.625 7.718 2.625 14c0 6.283 5.093 11.375 11.375 11.375 6.283 0 11.375-5.092 11.375-11.375 0-6.282-5.092-11.375-11.375-11.375m0 21.35c-5.488 0-9.953-4.487-9.953-9.975S8.512 4.047 14 4.047 23.953 8.512 23.953 14 19.488 23.976 14 23.976m4.977-10.686H14.71V9.023a.711.711 0 0 0-1.422 0v4.266H9.023a.711.711 0 0 0 0 1.422h4.266v4.266a.711.711 0 0 0 1.422 0V14.71h4.266a.711.711 0 0 0 0-1.422"/></svg>