<svg xmlns="http://www.w3.org/2000/svg" fill="none" viewBox="0 0 80 80"><path fill="#0daaba" stroke="#0d98ba" d="M14.499 43.634c7.007-5.02 16.194-8.066 24.938-7.067l.047.005.047-.003c8.627-.636 17.712 2.64 24.645 7.799C71.122 49.538 75.8 56.513 75.8 63.202c0 3.326-1.158 5.982-3.158 8.115-2.012 2.144-4.894 3.777-8.359 4.997-6.935 2.442-16.067 3.186-24.789 3.186-8.712 0-17.952-.973-24.994-3.644-7.047-2.673-11.743-6.974-11.743-13.577 0-6.686 4.721-13.614 11.742-18.645Z"/><ellipse cx="5.817" cy="5.746" fill="#feaf9e" rx="5.817" ry="5.746" transform="matrix(.883 -.46938 .48626 .87382 12.325 63.834)"/><ellipse cx="25.877" cy="59.227" fill="#152e56" rx="5.622" ry="5.912"/><ellipse cx="28.137" cy="56.585" fill="#fff" rx="1.423" ry="1.354"/><ellipse cx="5.817" cy="5.746" fill="#feaf9e" rx="5.817" ry="5.746" transform="matrix(.883 -.46938 .48626 .87382 51.844 63.834)"/><ellipse cx="5.622" cy="5.912" fill="#152e56" rx="5.622" ry="5.912" transform="matrix(-1 0 0 1 58.301 53.315)"/><ellipse cx="1.423" cy="1.354" fill="#fff" rx="1.423" ry="1.354" transform="matrix(-1 0 0 1 51.844 55.23)"/><path fill="#dd3635" d="M45.814 66.571c0 3.512-2.895 7.153-6.42 7.153-3.527 0-6.65-3.64-6.65-7.153s3.123.543 6.65.543c3.525 0 6.42-4.055 6.42-.543"/><mask id="a" width="14" height="9" x="32" y="65" maskUnits="userSpaceOnUse" style="mask-type:alpha"><path fill="#dd3635" d="M45.814 66.571c0 3.512-2.895 7.153-6.42 7.153-3.527 0-6.65-3.64-6.65-7.153s3.123.543 6.65.543c3.525 0 6.42-4.055 6.42-.543"/></mask><g mask="url(#a)"><ellipse cx="39.279" cy="72.75" fill="#fc7073" rx="5.514" ry="3.723"/></g><path fill="#aae557" stroke="#7ab921" d="M28.573 10.85c4.684 2.437 7.25 5.415 8.788 8.641 1.496 3.137 2.032 6.527 2.56 9.977-4.984 2.307-13.04 5.933-22.14 1.2-4.74-2.467-7.859-4.862-9.96-7.327-1.991-2.337-3.086-4.759-3.77-7.413 1.593-.64 3.305-1.53 5.082-2.44 1.946-.997 3.986-2.023 6.108-2.816 4.236-1.583 8.733-2.214 13.332.178Z"/><path fill="#aae557" stroke="#7ab921" d="M50.397 10.612c-4.572 2.633-7.003 5.716-8.397 9.004-1.355 3.197-1.74 6.607-2.116 10.076 5.083 2.095 13.29 5.376 22.172.262 9.076-5.227 13.111-9.139 14.307-14.502-1.633-.58-3.459-1.445-5.381-2.348-2.106-.99-4.347-2.03-6.66-2.834-4.63-1.608-9.451-2.234-13.925.342Z"/><path fill="#5bb923" d="M37.332 31.546a2.39 2.39 0 1 1 4.779 0v7.318a2.39 2.39 0 0 1-4.78 0z"/><path fill="#5ab823" d="M38.385 30.277a1.79 1.79 0 0 0-.354 1.456c.101.519.429.994.896 1.311.468.317 1.033.448 1.556.352a1.81 1.81 0 0 0 1.236-.857c.264-.438.593-.947.901-1.416 3.065-4.478 6.456-9.257 11.042-11.734 4.23-1.83 9.5-1.54 14.376-.955.59.08 1.182.167 1.761.272a38 38 0 0 0-1.725-.467c-4.85-1.104-9.937-2.114-15.133-.584-5.774 2.364-9.604 6.878-13.403 11.2-.387.463-.769.928-1.153 1.422"/><path fill="#5ab823" d="M40.172 29.222c.324.417.457.937.354 1.456-.101.519-.429.994-.897 1.31a2.12 2.12 0 0 1-1.555.353 1.81 1.81 0 0 1-1.236-.857 44 44 0 0 0-.902-1.416c-3.065-4.478-6.455-9.257-11.041-11.734-4.23-1.83-9.5-1.541-14.376-.955-.59.08-1.182.167-1.761.272a38 38 0 0 1 1.725-.467c4.85-1.104 9.937-2.114 15.133-.584 5.773 2.364 9.604 6.878 13.403 11.2.387.462.769.927 1.153 1.422"/></svg>