<svg xmlns="http://www.w3.org/2000/svg" fill="none" viewBox="0 0 32 32"><path fill="#0daaba" d="M20 27.094v-6.667a1.334 1.334 0 0 0-1.333-1.333h-5.334A1.334 1.334 0 0 0 12 20.427v6.667m11.699-14.253a1.493 1.493 0 0 0-2.066 0 3.333 3.333 0 0 1-4.601 0 1.493 1.493 0 0 0-2.064 0 3.333 3.333 0 0 1-4.603 0 1.493 1.493 0 0 0-2.065 0 3.333 3.333 0 0 1-5.027-4.33l3.852-5.58a2.67 2.67 0 0 1 2.208-1.17h13.334a2.67 2.67 0 0 1 2.204 1.164l3.86 5.59a3.334 3.334 0 0 1-5.032 4.324"/><path stroke="#4a4a4a" stroke-linecap="round" stroke-linejoin="round" stroke-width="1.5" d="M20 27.094v-6.667a1.334 1.334 0 0 0-1.333-1.333h-5.334A1.334 1.334 0 0 0 12 20.427v6.667m11.699-14.253a1.493 1.493 0 0 0-2.066 0 3.333 3.333 0 0 1-4.601 0 1.493 1.493 0 0 0-2.064 0 3.333 3.333 0 0 1-4.603 0 1.493 1.493 0 0 0-2.065 0 3.333 3.333 0 0 1-5.027-4.33l3.852-5.58a2.67 2.67 0 0 1 2.208-1.17h13.334a2.67 2.67 0 0 1 2.204 1.164l3.86 5.59a3.334 3.334 0 0 1-5.032 4.324"/><path stroke="#4a4a4a" stroke-linecap="round" stroke-linejoin="round" stroke-width="1.5" d="M5.333 14.6v10.733A2.666 2.666 0 0 0 8 28h16a2.667 2.667 0 0 0 2.667-2.667V14.6"/></svg>